<svg width="274" height="60" viewBox="0 0 274 60" fill="none" xmlns="http://www.w3.org/2000/svg">
<path fill-rule="evenodd" clip-rule="evenodd" d="M121.542 3.54333V41.8515H112.544V3.54333H121.542Z" fill="#2A2929"/>
<path fill-rule="evenodd" clip-rule="evenodd" d="M168.134 23.0585C165.647 23.0585 163.793 24.5946 162.999 26.236L162.999 32.058C163.794 33.6983 165.646 35.2343 168.134 35.2343C171.945 35.2332 173.587 32.1101 173.587 29.1462C173.587 26.1823 171.945 23.0589 168.134 23.0585ZM162.999 3.54333V18.5061C164.534 16.9187 167.022 15.6485 170.569 15.6485C179.092 15.6481 182.85 22.5823 182.85 29.1462C182.85 35.7105 179.092 42.6448 170.569 42.6448C166.017 42.6448 163.211 40.528 161.941 38.4103V41.8515H154.001V3.54333H162.999Z" fill="#2A2929"/>
<path fill-rule="evenodd" clip-rule="evenodd" d="M211.311 16.4413V41.8515H203.371V38.9398C201.253 41.2151 198.66 42.6448 195.271 42.6448C188.284 42.6448 185.108 37.9337 185.108 32.216V16.4413H194.106V30.9994C194.106 33.6984 195.748 34.9694 197.971 34.9694C199.982 34.9694 201.517 33.7512 202.312 32.7462V16.4413H211.311Z" fill="#2A2929"/>
<path fill-rule="evenodd" clip-rule="evenodd" d="M228.496 23.0585C224.685 23.0585 223.044 26.1831 223.044 29.1462C223.044 32.1101 224.685 35.2343 228.496 35.2343C230.984 35.2332 232.836 33.6987 233.63 32.0584V26.2356C232.836 24.5942 230.984 23.0589 228.496 23.0585ZM226.061 15.6481C230.613 15.6481 233.418 17.7653 234.689 19.883L234.689 16.4413H242.629V40.7914C242.629 50.9557 235.271 54.2899 227.595 54.2899C223.519 54.2899 219.708 53.3915 216.639 51.9081L218.747 45.3219C221.088 46.3291 223.764 46.8798 226.379 46.8798C230.454 46.8791 233.63 45.662 233.63 41.322V39.7871C232.095 41.3742 229.607 42.6448 226.061 42.6448C217.538 42.6448 213.78 35.7109 213.78 29.1462C213.78 22.5816 217.538 15.6484 226.061 15.6481Z" fill="#2A2929"/>
<path fill-rule="evenodd" clip-rule="evenodd" d="M94.6514 36.6357C96.1337 36.6357 97.4573 36.319 98.8342 35.3125V31.8724C98.0398 31.6071 96.8228 31.3954 95.605 31.3954C93.4873 31.395 91.5821 32.1366 91.5821 34.1489C91.5821 35.4717 92.7469 36.6361 94.6514 36.6357ZM109.579 36.2658L110.586 41.6644C109.368 42.1418 107.727 42.4596 106.033 42.4596C103.228 42.4585 101.163 41.4535 99.998 39.6545C97.5636 41.5586 94.758 42.7242 91.1584 42.7242C86.2881 42.7234 82.3181 39.8121 82.3181 34.8896C82.3181 28.4848 88.4054 26.5262 93.3286 26.5262C95.2346 26.5259 97.1402 26.7379 98.8342 27.1083V26.2076C98.8342 24.4086 97.1403 23.0321 93.5403 23.0321C90.8587 23.0317 88.3487 23.6481 86.1747 24.4127L84.647 17.4202C86.7651 16.7327 90.788 15.7271 94.5456 15.7271C102.646 15.7267 107.833 18.5322 107.833 27.5845V34.6775C107.833 35.8949 108.68 36.2661 109.579 36.2658Z" fill="#2A2929"/>
<path fill-rule="evenodd" clip-rule="evenodd" d="M136.161 36.6357C137.643 36.6357 138.967 36.319 140.343 35.3125L140.344 31.8724C139.549 31.6071 138.332 31.3954 137.114 31.3954C134.997 31.395 133.091 32.1366 133.091 34.1489C133.091 35.4717 134.256 36.6361 136.161 36.6357ZM151.089 36.2658L152.095 41.6644C150.877 42.1418 149.236 42.4596 147.543 42.4596C144.737 42.4585 142.672 41.4535 141.507 39.6545C139.073 41.5586 136.267 42.7242 132.668 42.7242C127.798 42.7234 123.827 39.8121 123.827 34.8896C123.827 28.4848 129.914 26.5262 134.838 26.5262C136.744 26.5259 138.649 26.7379 140.343 27.1083L140.344 26.2076C140.344 24.4086 138.649 23.0321 135.05 23.0321C132.368 23.0317 129.859 23.6481 127.684 24.4127L126.157 17.4202C128.275 16.7327 132.297 15.7271 136.055 15.7271C144.155 15.7267 149.342 18.5322 149.342 27.5845V34.6775C149.342 35.8949 150.189 36.2661 151.089 36.2658Z" fill="#2A2929"/>
<path fill-rule="evenodd" clip-rule="evenodd" d="M257.219 36.6357C258.702 36.6357 260.025 36.319 261.402 35.3125V31.8724C260.607 31.6071 259.39 31.3954 258.173 31.3954C256.055 31.395 254.15 32.1366 254.15 34.1489C254.15 35.4717 255.315 36.6361 257.219 36.6357ZM272.148 36.2658L273.154 41.6644C271.936 42.1418 270.295 42.4596 268.602 42.4596C265.795 42.4585 263.731 41.4535 262.566 39.6545C260.131 41.5586 257.326 42.7242 253.726 42.7242C248.856 42.7234 244.886 39.8121 244.886 34.8896C244.886 28.4848 250.973 26.5262 255.897 26.5262C257.802 26.5259 259.708 26.7379 261.402 27.1083V26.2076C261.402 24.4086 259.708 23.0321 256.108 23.0321C253.427 23.0317 250.916 23.6481 248.742 24.4127L247.215 17.4202C249.333 16.7327 253.356 15.7271 257.114 15.7271C265.214 15.7267 270.401 18.5322 270.401 27.5845V34.6775C270.401 35.8949 271.248 36.2661 272.148 36.2658Z" fill="#2A2929"/>
<path fill-rule="evenodd" clip-rule="evenodd" d="M19.6425 9.39707C19.8043 9.48854 19.9657 9.58 20.1294 9.67411C20.2238 9.72816 20.3187 9.78371 20.4139 9.83851C20.7401 10.0301 21.07 10.2244 21.4011 10.4236C21.4691 10.4659 21.5387 10.5075 21.609 10.5495C21.7628 10.6428 21.9186 10.7403 22.0724 10.8363C22.1869 10.9059 22.3014 10.978 22.416 11.0491C22.566 11.1436 22.7179 11.2392 22.868 11.3352C22.9893 11.413 23.1103 11.4913 23.2323 11.5692C23.3797 11.6644 23.5271 11.76 23.6749 11.8568C23.8098 11.9449 23.9433 12.0341 24.0793 12.1236C24.3046 12.2744 24.5313 12.4264 24.7581 12.5806C24.9161 12.6868 25.0748 12.7952 25.2336 12.9033C25.3692 12.9974 25.5057 13.0938 25.6425 13.1891C25.7839 13.2881 25.9253 13.3864 26.0666 13.4877C26.2042 13.5837 26.341 13.6819 26.4774 13.779C26.6237 13.8841 26.7714 13.9915 26.9188 14.0988C27.0485 14.1926 27.1796 14.2867 27.3093 14.3823C27.5039 14.5244 27.699 14.6699 27.8936 14.815C28.0493 14.9314 28.205 15.0479 28.3608 15.1662C28.5516 15.3102 28.7418 15.4545 28.9323 15.6023C29.0547 15.6941 29.1768 15.7902 29.2988 15.8846C29.4614 16.0116 29.625 16.1375 29.7875 16.2671C29.9107 16.3639 30.0347 16.4606 30.1579 16.5589C30.331 16.6953 30.5042 16.8344 30.6773 16.9747C30.788 17.0623 30.8964 17.1508 31.0072 17.24C31.2294 17.4202 31.4524 17.6028 31.6746 17.7876C31.8961 17.6047 32.1172 17.424 32.3364 17.2453C32.4551 17.1497 32.5715 17.0555 32.6887 16.9625C32.8546 16.828 33.0198 16.6957 33.1853 16.565C33.3142 16.4625 33.4419 16.3612 33.5712 16.2603C33.7277 16.1375 33.8834 16.0158 34.0395 15.8945C34.1672 15.7951 34.2961 15.6941 34.4242 15.5973C34.6011 15.4605 34.7784 15.3268 34.9553 15.1919C35.1371 15.0543 35.3196 14.9178 35.5018 14.7822C35.6787 14.6495 35.8575 14.5168 36.0355 14.3864C36.1712 14.2863 36.3076 14.188 36.4433 14.0894C36.5846 13.9866 36.7253 13.886 36.8659 13.7851C37.008 13.6827 37.1496 13.5822 37.2906 13.4816C37.4267 13.386 37.5613 13.2923 37.6958 13.1982C37.8383 13.0991 37.9808 12.9994 38.1217 12.9015C38.2635 12.8032 38.4037 12.7072 38.5462 12.6123C38.7983 12.4396 39.0493 12.2718 39.3006 12.1051C39.4238 12.0231 39.5467 11.9407 39.6699 11.8602C39.8237 11.7597 39.9756 11.6606 40.1279 11.5623C40.2443 11.4882 40.3596 11.4135 40.4749 11.3401C40.631 11.2415 40.7859 11.1432 40.9405 11.0449C41.0494 10.9773 41.156 10.9104 41.2637 10.8438C41.4255 10.7452 41.5861 10.6451 41.746 10.5468C41.7883 10.5215 41.8295 10.4965 41.8718 10.4716C42.2335 10.2516 42.5941 10.0377 42.9531 9.8298C43.0416 9.77802 43.13 9.72698 43.2177 9.67596C43.3844 9.58034 43.5495 9.48666 43.7158 9.39331C43.7937 9.34909 43.8727 9.30525 43.9525 9.26065C39.7871 5.57751 35.6428 2.4669 31.6746 0C27.7076 2.4669 23.5645 5.57788 19.3972 9.26065C19.4789 9.30563 19.5609 9.35172 19.6425 9.39707Z" fill="#35388A"/>
<path fill-rule="evenodd" clip-rule="evenodd" d="M54.0035 19.8566C53.8342 19.9484 53.663 20.0436 53.4918 20.1388C53.4041 20.1872 53.3167 20.2368 53.2279 20.2859C53.0597 20.3808 52.8905 20.476 52.7219 20.5735C52.6384 20.6215 52.5537 20.6707 52.4702 20.7198C52.0941 20.9379 51.7158 21.162 51.3371 21.3925C51.3098 21.4084 51.283 21.4247 51.255 21.4409C51.0925 21.5403 50.9289 21.642 50.7664 21.7421C50.6609 21.8075 50.5547 21.8729 50.45 21.9394C50.2931 22.0373 50.1363 22.1368 49.9795 22.2377C49.8657 22.3095 49.7523 22.3827 49.637 22.4572C49.4832 22.5558 49.3294 22.6564 49.1756 22.757C49.0561 22.8348 48.9355 22.916 48.8153 22.9954C48.5568 23.1662 48.2972 23.3421 48.0364 23.5189C47.9018 23.61 47.7658 23.7018 47.6316 23.7948C47.4873 23.8938 47.3429 23.9955 47.1985 24.0964C47.0658 24.1898 46.9328 24.2831 46.7993 24.3761C46.6569 24.4763 46.5136 24.5791 46.3711 24.6811C46.2317 24.7813 46.0922 24.8821 45.9528 24.9831C45.8163 25.0821 45.6784 25.1815 45.5412 25.2828C45.3639 25.4129 45.1859 25.5451 45.0079 25.6778C44.8272 25.8131 44.6454 25.9488 44.4625 26.0871C44.2856 26.222 44.1088 26.3562 43.9307 26.4923C43.8026 26.5902 43.6748 26.6907 43.5459 26.7908C43.3902 26.9118 43.2341 27.032 43.0781 27.1548C42.9495 27.2557 42.8195 27.3589 42.6907 27.4609C42.5637 27.5622 42.4337 27.6666 42.3059 27.7694C42.5686 28.0468 42.8301 28.3272 43.0936 28.6099C43.1748 28.698 43.2572 28.7868 43.3392 28.8756C43.5429 29.096 43.7478 29.319 43.9518 29.5431C44.049 29.6485 44.1469 29.7563 44.2433 29.8632C44.4425 30.0832 44.6424 30.3058 44.8416 30.5288C44.9293 30.6259 45.0155 30.7223 45.1024 30.8194C45.3843 31.138 45.6659 31.4563 45.9478 31.7787C46.2279 32.1007 46.5064 32.4231 46.7827 32.7455C46.8685 32.846 46.954 32.947 47.0398 33.0471C47.2329 33.2754 47.4256 33.5021 47.6169 33.7293C47.7114 33.8419 47.8043 33.9546 47.8988 34.0672C48.0931 34.2981 48.2855 34.5313 48.4767 34.7641C48.5557 34.8598 48.6355 34.9557 48.7133 35.0514C48.979 35.3749 49.2428 35.6992 49.5036 36.025C49.5418 36.0715 49.5784 36.1184 49.6151 36.1645C49.8392 36.4438 50.0623 36.7242 50.2837 37.0046C50.3699 37.1135 50.4545 37.2231 50.5403 37.3331C50.7157 37.5561 50.8896 37.779 51.0619 38.0032C51.1523 38.1188 51.2414 38.2341 51.3303 38.3506C51.4418 38.4946 51.5525 38.6396 51.6629 38.7844C51.6689 38.7795 51.6753 38.7754 51.681 38.7704C51.8564 38.6272 52.0333 38.4874 52.2086 38.3479C52.3296 38.2515 52.4509 38.1555 52.5729 38.0599C52.7385 37.9295 52.9037 37.8006 53.0703 37.6713C53.1898 37.5791 53.3088 37.4861 53.4283 37.3947C53.6263 37.242 53.8236 37.0934 54.0209 36.9445C54.1622 36.8364 54.3047 36.7295 54.4457 36.624C54.6498 36.4713 54.855 36.3202 55.0576 36.1713C55.1838 36.0783 55.3097 35.9868 55.4367 35.895C55.5879 35.785 55.7399 35.6765 55.8899 35.568C56.0256 35.4717 56.159 35.3764 56.292 35.2808C56.4383 35.1776 56.5823 35.0771 56.7289 34.975C56.8616 34.8828 56.9942 34.7887 57.1269 34.6973C57.2962 34.5805 57.4644 34.467 57.633 34.3525C57.8447 34.2089 58.0563 34.0672 58.2668 33.9266C58.4093 33.8317 58.5507 33.738 58.6928 33.6458C58.8364 33.5509 58.9796 33.4583 59.1229 33.3657C59.2491 33.2841 59.3754 33.2032 59.5001 33.1234C59.6486 33.029 59.7953 32.9356 59.9435 32.8437C60.0629 32.7682 60.1811 32.6945 60.3013 32.62C60.4514 32.5266 60.6018 32.4333 60.7518 32.3418C60.8448 32.2855 60.9375 32.2315 61.0308 32.1744C61.3317 31.993 61.6329 31.8154 61.9318 31.6419C62.035 31.5807 62.1378 31.5206 62.2399 31.4624C62.3986 31.3701 62.5562 31.2824 62.7131 31.1936C62.8144 31.1365 62.9153 31.0798 63.0174 31.0235C63.1281 30.9612 63.2395 30.8992 63.3499 30.8387C60.9469 27.4931 58.308 24.155 55.4541 20.8831C55.0943 20.4704 54.7338 20.064 54.372 19.6589C54.321 19.685 54.2707 19.7126 54.2197 19.7401C54.1479 19.7787 54.0757 19.8176 54.0035 19.8566Z" fill="#00A0E3"/>
<path fill-rule="evenodd" clip-rule="evenodd" d="M31.8239 17.9089C31.9029 17.9747 31.9819 18.0424 32.0613 18.1078C32.2684 18.2798 32.4744 18.4533 32.6804 18.6275C32.7919 18.7212 32.9026 18.816 33.0122 18.9101C33.1929 19.064 33.3728 19.2186 33.5534 19.3747C33.6642 19.4707 33.7756 19.5663 33.8853 19.663C34.0837 19.8357 34.2817 20.0104 34.4798 20.1857C34.5686 20.2632 34.657 20.3411 34.7455 20.4205C35.0255 20.6695 35.3052 20.9209 35.586 21.1756C35.6635 21.2459 35.7391 21.3162 35.8162 21.3861C36.0279 21.5781 36.2395 21.7735 36.4493 21.9685C36.5532 22.0645 36.6572 22.1606 36.76 22.2566C36.9512 22.4346 37.1417 22.6149 37.3333 22.7959C37.4342 22.8919 37.5375 22.9879 37.638 23.0839C37.8602 23.2959 38.0817 23.5087 38.3046 23.723C38.3693 23.7853 38.4336 23.8477 38.4982 23.9109C38.7828 24.186 39.0666 24.4653 39.3516 24.7465C39.4283 24.824 39.5062 24.9011 39.5844 24.9786C39.795 25.1891 40.0066 25.3996 40.2171 25.6127C40.3154 25.7121 40.4136 25.8112 40.5115 25.911C40.7096 26.1124 40.9088 26.3158 41.1068 26.5206C41.1994 26.6148 41.2916 26.7096 41.3839 26.8063C41.6322 27.063 41.8805 27.3222 42.1296 27.5845C42.1674 27.6231 42.2036 27.6616 42.2403 27.7009C42.2622 27.7236 42.2838 27.7463 42.3057 27.7694C42.4335 27.6662 42.5627 27.5634 42.6904 27.461C42.8193 27.3589 42.9493 27.2561 43.0778 27.1548C43.2339 27.0316 43.39 26.9121 43.5457 26.7908C43.6746 26.6907 43.8024 26.5906 43.9305 26.4923C44.1085 26.3551 44.2854 26.222 44.4622 26.0871C44.6452 25.9484 44.827 25.8131 45.0077 25.6778C45.1857 25.5451 45.3637 25.4132 45.541 25.2829C45.6782 25.1816 45.8161 25.0821 45.9526 24.9831C46.092 24.8822 46.2314 24.7813 46.3709 24.6812C46.5134 24.5791 46.6566 24.4774 46.7991 24.3761C46.9329 24.2824 47.0656 24.1898 47.1983 24.0964C47.3426 23.9951 47.4867 23.8938 47.6314 23.7948C47.766 23.7018 47.9016 23.61 48.0362 23.5189C48.297 23.3421 48.5566 23.1666 48.8151 22.9954C48.9353 22.9161 49.0559 22.8348 49.1754 22.757C49.3292 22.6561 49.4826 22.5559 49.6368 22.4572C49.7521 22.3824 49.8655 22.3095 49.9793 22.2377C50.1361 22.1368 50.2929 22.0373 50.4498 21.9394C50.5548 21.8729 50.6603 21.8079 50.7662 21.7421C50.9287 21.6408 51.0923 21.5403 51.2548 21.4409C51.2828 21.4247 51.3096 21.4084 51.3369 21.3925C51.7167 21.1616 52.0939 20.9379 52.47 20.7198C52.5535 20.6703 52.6382 20.6219 52.7217 20.5735C52.8903 20.476 53.0595 20.3808 53.2277 20.2859C53.3165 20.2364 53.4039 20.188 53.4916 20.1389C53.6628 20.0436 53.834 19.9495 54.003 19.8566C54.0755 19.8173 54.1477 19.7787 54.2195 19.7402C54.2697 19.7126 54.3208 19.6853 54.3718 19.6589C50.9423 15.8208 47.4394 12.3418 43.9536 9.26068C43.8746 9.3049 43.7936 9.34911 43.7158 9.39333C43.5495 9.48631 43.384 9.58074 43.2177 9.67599C43.13 9.72663 43.0415 9.77842 42.9531 9.82982C42.594 10.0373 42.2335 10.2516 41.8718 10.4716C41.8295 10.4966 41.7883 10.5219 41.7459 10.5468C41.5861 10.6451 41.4254 10.7452 41.2637 10.8439C41.156 10.91 41.049 10.9781 40.9405 11.045C40.7859 11.1432 40.6309 11.2415 40.4748 11.3402C40.3596 11.4131 40.2443 11.4883 40.1279 11.5624C39.976 11.6602 39.8237 11.7601 39.6699 11.8602C39.5466 11.9403 39.4238 12.0235 39.3006 12.1051C39.0493 12.2718 38.7983 12.4396 38.5462 12.6124C38.4037 12.7068 38.2635 12.8036 38.1217 12.9015C37.9807 12.999 37.8383 13.0992 37.6958 13.1982C37.5612 13.2919 37.4267 13.3864 37.2906 13.4816C37.1496 13.5818 37.008 13.6827 36.8658 13.7851C36.7252 13.8857 36.5846 13.9866 36.4432 14.0894C36.3075 14.1877 36.1711 14.2863 36.0355 14.3864C35.8574 14.5168 35.6786 14.6495 35.5017 14.7822C35.3196 14.9179 35.1371 15.0547 34.9553 15.1919C34.7784 15.3264 34.6011 15.4606 34.4242 15.5974C34.2965 15.6941 34.1672 15.7951 34.0395 15.8945C33.8834 16.0158 33.7276 16.1375 33.5712 16.2603C33.4419 16.3609 33.3142 16.4626 33.1853 16.565C33.0198 16.6954 32.8542 16.8284 32.6887 16.9626C32.5715 17.0556 32.4551 17.1501 32.3364 17.2453C32.1172 17.4241 31.8961 17.6051 31.6758 17.7876C31.7249 17.8273 31.7748 17.8681 31.8239 17.9089Z" fill="#3769B0"/>
<path fill-rule="evenodd" clip-rule="evenodd" d="M0.637574 31.1936C0.795558 31.282 0.952408 31.3709 1.11001 31.4624C1.2132 31.5206 1.31791 31.5818 1.42109 31.6419C1.71627 31.815 2.01447 31.9903 2.31267 32.1698C2.40792 32.2273 2.50279 32.2844 2.59916 32.3433C2.74959 32.4329 2.89923 32.527 3.04739 32.62C3.16758 32.6937 3.28813 32.7685 3.40719 32.8437C3.55421 32.9352 3.70165 33.029 3.8498 33.1227C3.97491 33.2028 4.10076 33.2841 4.22776 33.3657C4.37138 33.4583 4.51458 33.5516 4.65782 33.6446C4.79918 33.7376 4.94248 33.8321 5.08383 33.9273C5.29549 34.0683 5.50636 34.2093 5.71801 34.3525C5.88658 34.467 6.05474 34.5809 6.22293 34.6973C6.35559 34.7883 6.48941 34.8821 6.62207 34.975C6.76758 35.0771 6.91274 35.178 7.05901 35.2808C7.1928 35.3764 7.32657 35.4717 7.45999 35.568C7.61117 35.6757 7.76315 35.7853 7.91508 35.8957C8.04132 35.9868 8.16718 36.0783 8.29304 36.1713C8.49826 36.3206 8.70196 36.4732 8.90795 36.6267C9.04741 36.731 9.18687 36.836 9.32709 36.9419C9.52552 37.0908 9.72431 37.2423 9.92274 37.3954C10.0422 37.4857 10.1604 37.5791 10.2795 37.6713C10.445 37.8006 10.6125 37.9295 10.7777 38.0599C10.8994 38.1555 11.0214 38.2519 11.1424 38.3479C11.3185 38.4874 11.4935 38.6276 11.6697 38.7704C11.6765 38.7754 11.6814 38.7799 11.6882 38.7844C11.7978 38.6404 11.9082 38.4968 12.0189 38.3524C12.1085 38.2352 12.1988 38.1177 12.2903 38.0005C12.4615 37.7783 12.6345 37.5568 12.8084 37.335C12.8953 37.225 12.9808 37.1135 13.0685 37.0039C13.2869 36.7257 13.5073 36.4502 13.7295 36.172C13.7688 36.1221 13.8081 36.073 13.8474 36.0235C14.1093 35.6985 14.3709 35.3749 14.6362 35.0521C14.7156 34.9557 14.7949 34.8597 14.875 34.7622C15.0663 34.5313 15.2579 34.2993 15.451 34.0683C15.5455 33.9546 15.6389 33.8423 15.7338 33.7285C15.9258 33.5014 16.117 33.2754 16.3105 33.0486C16.3948 32.9484 16.4817 32.846 16.5679 32.7455C16.8442 32.4216 17.1231 32.0996 17.4032 31.7787C17.684 31.4563 17.966 31.138 18.2468 30.8213C18.3352 30.7223 18.4229 30.624 18.5113 30.5261C18.7094 30.3035 18.9078 30.0847 19.1047 29.8659C19.2037 29.7578 19.302 29.6485 19.401 29.5404C19.6021 29.3197 19.8051 29.0998 20.0073 28.8806C20.0908 28.7891 20.1747 28.698 20.259 28.608C20.5209 28.3253 20.7836 28.0468 21.0451 27.7694C20.9151 27.6647 20.7844 27.5607 20.6555 27.4572C20.5296 27.3566 20.4034 27.258 20.2786 27.1598C20.1169 27.0331 19.957 26.9087 19.7964 26.7844C19.6724 26.6865 19.548 26.5905 19.4229 26.4949C19.2385 26.3516 19.0518 26.2114 18.8663 26.0712C18.7007 25.9457 18.5363 25.8221 18.37 25.6981C18.1814 25.5572 17.9935 25.4177 17.8061 25.2806C17.6723 25.1823 17.5389 25.0863 17.4058 24.9887C17.2626 24.8848 17.1182 24.7813 16.975 24.6785C16.8355 24.5783 16.696 24.4789 16.5554 24.3799C16.419 24.2824 16.2803 24.1856 16.1431 24.0896C16.0032 23.9917 15.863 23.8938 15.7236 23.7978C15.5773 23.6969 15.431 23.5968 15.2836 23.497C15.0395 23.3311 14.7961 23.1682 14.5527 23.006C14.4257 22.9229 14.2987 22.8378 14.1717 22.7543C14.0209 22.6561 13.8697 22.5582 13.7197 22.4607C13.6014 22.3847 13.485 22.309 13.3667 22.2335C13.2129 22.1367 13.059 22.0388 12.9048 21.9425C12.7952 21.8729 12.6863 21.8056 12.5759 21.7376C12.4172 21.6393 12.2574 21.5392 12.0975 21.4432C12.0537 21.4153 12.0083 21.3895 11.9641 21.3611C11.605 21.1434 11.2475 20.933 10.8922 20.7266C10.8041 20.6744 10.7141 20.6223 10.6261 20.5716C10.4594 20.476 10.2943 20.3823 10.1276 20.2885C10.0373 20.2379 9.94582 20.1869 9.85549 20.137C9.6873 20.0421 9.51868 19.9495 9.35049 19.858C9.27528 19.8172 9.19938 19.7768 9.12416 19.7368C9.07616 19.7103 9.02734 19.685 8.97896 19.6589C8.61726 20.0637 8.25674 20.4707 7.89692 20.8831C5.04149 24.155 2.40416 27.4931 0 30.8387C0.111874 30.8981 0.222239 30.9619 0.333735 31.0235C0.435027 31.0791 0.537038 31.1369 0.637574 31.1936Z" fill="#00A0E3"/>
<path fill-rule="evenodd" clip-rule="evenodd" d="M41.037 48.2332C40.9504 48.1206 40.8628 48.0099 40.7751 47.8976C40.5578 47.6225 40.3385 47.3469 40.1182 47.071C40.077 47.02 40.0365 46.9694 39.9961 46.9183C39.7353 46.5948 39.4719 46.2705 39.208 45.9481C39.1283 45.8514 39.0485 45.7539 38.9688 45.6579C38.7783 45.4262 38.5867 45.1941 38.3932 44.9632C38.2979 44.8505 38.205 44.7372 38.1105 44.6246C37.9193 44.3978 37.7265 44.171 37.5345 43.9434C37.4487 43.8425 37.3621 43.7416 37.2764 43.6407C37.0004 43.3183 36.7215 42.9963 36.4415 42.6743C36.1599 42.3507 35.8779 42.0329 35.5968 41.7154C35.5094 41.6179 35.4217 41.5204 35.3344 41.4222C35.136 41.2007 34.9368 40.9795 34.738 40.7592C34.6397 40.6515 34.5426 40.5445 34.4455 40.4368C34.2425 40.215 34.0384 39.9934 33.8347 39.7735C33.7508 39.6828 33.668 39.5936 33.5853 39.5044C33.3026 39.1983 33.0191 38.8963 32.7352 38.597C32.6967 38.5561 32.657 38.5164 32.6185 38.4752C32.3735 38.216 32.1271 37.9593 31.8799 37.7031C31.8115 37.6328 31.7442 37.5632 31.6747 37.4929C31.6066 37.5636 31.5375 37.6343 31.4691 37.7054C31.2268 37.9563 30.9834 38.2092 30.7419 38.465C30.6988 38.5093 30.6561 38.5535 30.6138 38.5992C30.331 38.8967 30.0491 39.1982 29.7664 39.5029C29.6817 39.5932 29.5982 39.685 29.5125 39.7765C29.3102 39.9953 29.1084 40.2153 28.9062 40.4368C28.8083 40.5442 28.71 40.6519 28.6129 40.7607C28.4137 40.9792 28.2157 41.201 28.0165 41.4222C27.9288 41.52 27.8415 41.6179 27.7538 41.7154C27.4722 42.0329 27.1903 42.3519 26.9103 42.6743C26.6294 42.9955 26.3512 43.3187 26.0746 43.6407C25.9876 43.7416 25.9034 43.8425 25.8176 43.9431C25.6241 44.1702 25.4306 44.3985 25.2386 44.6271C25.146 44.7383 25.0526 44.8487 24.9604 44.9598C24.7643 45.1941 24.5707 45.4284 24.3772 45.6624C24.2997 45.7572 24.2215 45.8514 24.1436 45.9462C23.8783 46.2701 23.6145 46.5948 23.3537 46.9214C23.3166 46.9656 23.2796 47.0124 23.2433 47.0578C23.018 47.3394 22.7947 47.6206 22.5736 47.9014C22.4874 48.0095 22.4024 48.1187 22.3181 48.2264C22.2728 48.2854 22.2274 48.3436 22.1813 48.4018C22.2455 48.4668 22.3083 48.5326 22.3729 48.5976C22.6197 48.8546 22.868 49.1135 23.1163 49.3747C23.1538 49.4143 23.1904 49.4532 23.2286 49.4926C23.5117 49.7915 23.7963 50.095 24.0794 50.3996C24.1622 50.4892 24.2449 50.5784 24.3273 50.6672C24.5314 50.8891 24.7362 51.1106 24.94 51.3347C25.0375 51.4405 25.1327 51.5475 25.2295 51.6537C25.4298 51.8744 25.629 52.0963 25.8289 52.32C25.9166 52.4179 26.002 52.5139 26.0897 52.611C26.3716 52.9285 26.6532 53.2479 26.934 53.5703C27.2141 53.8904 27.4923 54.2135 27.7682 54.5356C27.8559 54.6365 27.9424 54.7389 28.0278 54.841C28.2213 55.067 28.413 55.2941 28.6046 55.5209C28.6976 55.6324 28.7921 55.745 28.8862 55.858C29.0797 56.0893 29.272 56.3226 29.4633 56.5554C29.5434 56.6514 29.6221 56.7477 29.7011 56.843C29.9656 57.1661 30.2291 57.4904 30.4887 57.8143C30.5291 57.8638 30.5677 57.9134 30.6081 57.9629C30.8304 58.2403 31.0507 58.5174 31.2687 58.7944C31.3564 58.9051 31.443 59.017 31.5299 59.1266C31.5787 59.1882 31.6267 59.2505 31.6747 59.3125C31.7231 59.2502 31.773 59.1882 31.8221 59.1266C31.9086 59.0155 31.994 58.9055 32.081 58.7959C32.3013 58.5166 32.5224 58.2384 32.7447 57.9594C32.7832 57.9111 32.8214 57.8631 32.86 57.8151C33.1208 57.4908 33.3853 57.1669 33.6487 56.843C33.7277 56.7477 33.8087 56.6514 33.8865 56.5554C34.0789 56.3222 34.2712 56.0893 34.4647 55.858C34.5588 55.7446 34.653 55.6324 34.7475 55.5209C34.938 55.2941 35.1292 55.067 35.3227 54.841C35.4085 54.7389 35.4951 54.6372 35.5816 54.5356C35.8575 54.2132 36.1364 53.8908 36.4165 53.5703C36.6973 53.2479 36.9781 52.9285 37.2612 52.611C37.3478 52.5139 37.4343 52.4179 37.5208 52.32C37.7212 52.0963 37.9212 51.8744 38.12 51.6537C38.2182 51.5471 38.3146 51.4405 38.4117 51.3347C38.6154 51.1098 38.8195 50.8895 39.0244 50.6672C39.1064 50.5784 39.1892 50.4892 39.2708 50.3996C39.5546 50.095 39.8393 49.7915 40.1231 49.4926C40.1594 49.4525 40.1972 49.4147 40.2346 49.3747C40.4818 49.1131 40.73 48.855 40.9791 48.5976C41.0415 48.5326 41.1062 48.4668 41.1685 48.4018C41.1254 48.3455 41.082 48.2888 41.037 48.2332Z" fill="#80CFF4"/>
<path fill-rule="evenodd" clip-rule="evenodd" d="M9.35053 19.8569C9.51872 19.9484 9.68621 20.0421 9.85553 20.137C9.94586 20.1869 10.0373 20.2379 10.1276 20.2886C10.2943 20.3819 10.4594 20.476 10.6261 20.5717C10.7146 20.6223 10.8042 20.6748 10.8922 20.7266C11.2475 20.933 11.605 21.1434 11.9641 21.3611C12.0087 21.3895 12.0537 21.4153 12.0976 21.4432C12.2574 21.5389 12.4172 21.6394 12.576 21.7376C12.6867 21.8057 12.7952 21.8729 12.9048 21.9425C13.059 22.0389 13.2129 22.1367 13.3667 22.2335C13.485 22.3087 13.6014 22.3847 13.7197 22.4607C13.8698 22.5582 14.0205 22.6564 14.1717 22.7543C14.2987 22.8375 14.4257 22.9229 14.5527 23.0061C14.7961 23.1678 15.0395 23.3315 15.2837 23.497C15.4311 23.5968 15.5773 23.6969 15.7236 23.7978C15.8631 23.8938 16.0033 23.9921 16.1431 24.0896C16.2803 24.1856 16.419 24.2831 16.5555 24.3799C16.6961 24.4785 16.8355 24.5783 16.975 24.6785C17.1182 24.7813 17.2626 24.8848 17.4059 24.9888C17.5389 25.0863 17.6723 25.1823 17.8061 25.2806C17.9936 25.4174 18.1814 25.5572 18.37 25.6982C18.5363 25.8221 18.7008 25.9458 18.8663 26.0712C19.0519 26.2111 19.2385 26.3524 19.423 26.4949C19.5481 26.5901 19.6725 26.6865 19.7964 26.7844C19.9574 26.9087 20.1169 27.0332 20.2787 27.1598C20.4034 27.2577 20.5293 27.3574 20.6555 27.4572C20.7855 27.5596 20.9152 27.6643 21.0463 27.7694C21.0664 27.7467 21.0863 27.7248 21.1079 27.7029C21.1498 27.6594 21.1922 27.6155 21.2346 27.5706C21.4768 27.3147 21.7195 27.0611 21.9629 26.809C22.0592 26.7096 22.1552 26.6106 22.2512 26.5119C22.4458 26.312 22.6383 26.1147 22.8325 25.9174C22.9357 25.8135 23.0366 25.7103 23.1383 25.6071C23.3443 25.4008 23.5491 25.1951 23.7551 24.9907C23.8379 24.9079 23.9207 24.8255 24.0031 24.7431C24.2843 24.4645 24.567 24.1883 24.8478 23.9142C24.92 23.8443 24.9922 23.7759 25.0644 23.7064C25.2787 23.4996 25.4922 23.294 25.7069 23.0888C25.8138 22.9875 25.9196 22.8877 26.0262 22.7868C26.2118 22.6111 26.3958 22.4376 26.5814 22.2657C26.6903 22.1647 26.7987 22.0638 26.9064 21.9629C27.1094 21.7747 27.3124 21.5883 27.5165 21.4039C27.6 21.326 27.6847 21.2486 27.7682 21.1707C28.0456 20.9194 28.3227 20.6718 28.5997 20.4246C28.6957 20.3384 28.7928 20.2542 28.89 20.1688C29.0786 20.0006 29.2683 19.835 29.4576 19.6706C29.5729 19.5678 29.6901 19.4676 29.8069 19.3663C29.9811 19.2167 30.1531 19.0677 30.3262 18.9196C30.4437 18.8206 30.559 18.7204 30.6761 18.6225C30.8719 18.4555 31.0677 18.293 31.2623 18.1305C31.3527 18.0549 31.4423 17.98 31.5319 17.9048C31.5787 17.8655 31.6267 17.827 31.6747 17.7876C31.4528 17.6028 31.2295 17.4214 31.0072 17.24C30.8969 17.1504 30.7881 17.0624 30.6773 16.9747C30.5042 16.8341 30.3311 16.6958 30.158 16.5589C30.0348 16.4607 29.9104 16.3639 29.7876 16.2671C29.6251 16.1375 29.4614 16.012 29.2989 15.8847C29.1768 15.7902 29.0548 15.6942 28.9323 15.6023C28.7418 15.4545 28.5517 15.3102 28.3608 15.1662C28.2051 15.0479 28.0494 14.9314 27.8937 14.815C27.699 14.6699 27.504 14.5244 27.3093 14.3823C27.1797 14.2863 27.0486 14.1926 26.9189 14.0988C26.7715 13.9915 26.6237 13.8853 26.4775 13.7791C26.341 13.6812 26.2043 13.5841 26.0667 13.4877C25.9253 13.386 25.7839 13.2889 25.6426 13.1891C25.5058 13.0939 25.3693 12.9978 25.2336 12.9033C25.0749 12.7949 24.9161 12.6876 24.7582 12.5806C24.5314 12.426 24.3043 12.2749 24.0794 12.1237C23.9437 12.0341 23.8099 11.9449 23.6749 11.8568C23.5272 11.7597 23.3798 11.6645 23.2324 11.5692C23.1107 11.491 22.9894 11.4134 22.868 11.3352C22.718 11.2392 22.5661 11.144 22.416 11.0491C22.3015 10.9773 22.187 10.907 22.0725 10.8363C21.9187 10.7403 21.7629 10.6428 21.609 10.5495C21.5387 10.5075 21.4692 10.4663 21.4012 10.4236C21.0701 10.2244 20.7402 10.0302 20.414 9.83854C20.3187 9.78373 20.2239 9.72819 20.1294 9.67414C19.9658 9.58041 19.804 9.48856 19.6426 9.3971C19.5609 9.35137 19.4789 9.30566 19.3973 9.26068C15.9111 12.3418 12.4085 15.8215 8.979 19.6589C9.02738 19.6835 9.07621 19.7103 9.12421 19.7368C9.19942 19.7764 9.27532 19.8176 9.35053 19.8569Z" fill="#3769B0"/>
</svg>
