<svg xmlns="http://www.w3.org/2000/svg" style="display: none;">
  <defs>
    <!-- Home Icon -->
    <symbol id="icon-home" viewBox="0 0 27 26">
      <path d="M13.6744 14.9956C12.812 14.9956 11.9848 15.3382 11.375 15.9481C10.7651 16.5579 10.4225 17.3851 10.4225 18.2475V25.8636H16.9264V18.2475C16.9264 17.3851 16.5837 16.5579 15.9739 15.9481C15.364 15.3382 14.5369 14.9956 13.6744 14.9956Z"/>
      <path d="M15.1247 0.723344C14.7266 0.36502 14.21 0.166748 13.6744 0.166748C13.1388 0.166748 12.6221 0.36502 12.224 0.723344L0.666626 11.1252V22.3986C0.666626 23.3185 1.03208 24.2008 1.68259 24.8513C2.33311 25.5019 3.21539 25.8673 4.13536 25.8673H8.25448V18.248C8.25448 16.8106 8.8255 15.432 9.84193 14.4156C10.8584 13.3992 12.2369 12.8281 13.6744 12.8281C15.1118 12.8281 16.4904 13.3992 17.5068 14.4156C18.5232 15.432 19.0943 16.8106 19.0943 18.248V25.8641H23.2134C24.1333 25.8641 25.0156 25.4986 25.6661 24.8481C26.3167 24.1976 26.6821 23.3153 26.6821 22.3953V11.122L15.1247 0.723344Z"/>
    </symbol>

    <!-- Missions Icon -->
    <symbol id="icon-missions" viewBox="0 0 29 24">
      <path d="M26.0847 3.87227C25.0398 2.01464 23.1822 0.969727 21.0923 0.969727H7.27608C5.18626 0.969727 3.32858 2.01464 2.28366 3.87227C1.00655 6.1943 0.309937 8.74859 0.309937 11.4189C0.309937 17.8046 2.86417 23.0292 6.11507 23.0292C7.85659 23.0292 9.24987 21.4038 10.2948 18.0368C10.4109 17.5724 10.8753 17.2241 11.4558 17.2241H17.1448C17.6092 17.2241 18.0736 17.5724 18.3058 18.0368C19.3508 21.4038 20.744 23.0292 22.4856 23.0292C25.7365 23.0292 28.2907 17.8046 28.2907 11.4189C28.0585 8.74853 27.3619 6.1943 26.0847 3.87227ZM10.7592 10.2579H9.59817V11.4189C9.59817 12.1155 9.13376 12.5799 8.43715 12.5799C7.74055 12.5799 7.27614 12.1155 7.27614 11.4189V10.2579H6.11512C5.41851 10.2579 4.95411 9.7935 4.95411 9.09689C4.95411 8.40028 5.41851 7.93588 6.11512 7.93588H7.27614V6.77486C7.27614 6.07825 7.74055 5.61384 8.43715 5.61384C9.13376 5.61384 9.59817 6.07825 9.59817 6.77486V7.93588H10.7592C11.4558 7.93588 11.9202 8.40028 11.9202 9.09689C11.9202 9.7935 11.4558 10.2579 10.7592 10.2579ZM18.4219 12.5799C17.4931 12.5799 16.6804 11.7672 16.6804 10.8384C16.6804 9.9096 17.4931 9.09689 18.4219 9.09689C19.3508 9.09689 20.1635 9.9096 20.1635 10.8384C20.1635 11.7672 19.2347 12.5799 18.4219 12.5799ZM21.7889 9.09689C20.9762 9.09689 20.0474 8.28418 20.0474 7.35537C20.0474 6.42656 20.9762 5.61384 21.7889 5.61384C22.6017 5.61384 23.5305 6.42656 23.5305 7.35537C23.5305 8.28418 22.7178 9.09689 21.7889 9.09689Z"/>
    </symbol>

    <!-- Artifacts Icon -->
    <symbol id="icon-artifacts" viewBox="0 0 29 28">
      <path d="M28.6 10.5C28.4489 11.3471 28.1122 12.1503 27.6141 12.852L17.3673 26.642C17.0424 27.0617 16.6264 27.402 16.1506 27.6372C15.6748 27.8724 15.1518 27.9964 14.621 27.9996C14.0903 28.0029 13.5658 27.8854 13.0871 27.6561C12.6085 27.4267 12.1883 27.0915 11.8583 26.6758L1.56131 12.6C1.1239 11.9662 0.815124 11.2527 0.652476 10.5H7.96514L13.5103 24.9188C13.5947 25.1394 13.744 25.3292 13.9386 25.4631C14.1332 25.597 14.3638 25.6687 14.6 25.6687C14.8362 25.6687 15.0668 25.597 15.2613 25.4631C15.4559 25.3292 15.6053 25.1394 15.6896 24.9188L21.2348 10.5H28.6ZM21.25 8.16667H28.5498C28.3723 7.37731 28.0318 6.63379 27.55 5.98384L24.5656 1.95417C24.1335 1.35013 23.5636 0.857793 22.9032 0.517952C22.2428 0.178111 21.5109 0.000556075 20.7681 2.25584e-06H18.2015L21.25 8.16667ZM13.5593 2.25584e-06L10.4571 8.16667H18.7545L15.7141 2.25584e-06H13.5593ZM7.96164 8.16667L11.0626 2.25584e-06H8.35364C7.61722 -0.000722671 6.89114 0.173282 6.23504 0.50772C5.57894 0.842158 5.01155 1.32749 4.57948 1.92384L1.69431 5.70617C1.14225 6.42954 0.767444 7.27225 0.599976 8.16667H7.96164ZM18.7346 10.5H10.4653L14.6 21.2497L18.7346 10.5Z"/>
    </symbol>

    <!-- Rating Icon -->
    <symbol id="icon-rating" viewBox="0 0 29 24">
      <path d="M21.9 7.67505L14.9 0.675049L7.90002 7.67505L0.900024 0.675049V19.8247C0.900024 20.753 1.26877 21.6432 1.92515 22.2996C2.58153 22.956 3.47177 23.3247 4.40002 23.3247H25.4C26.3283 23.3247 27.2185 22.956 27.8749 22.2996C28.5313 21.6432 28.9 20.753 28.9 19.8247V0.675049L21.9 7.67505Z"/>
    </symbol>

    <!-- Competencies Icon -->
    <symbol id="icon-competencies" viewBox="0 0 20 28">
      <path d="M9.70028 18.6667C7.85432 18.6667 6.04982 18.1193 4.51496 17.0937C2.9801 16.0682 1.78382 14.6105 1.07741 12.9051C0.370987 11.1996 0.186156 9.32298 0.546285 7.5125C0.906414 5.70201 1.79533 4.03896 3.10062 2.73367C4.40591 1.42838 6.06895 0.53947 7.87944 0.179342C9.68993 -0.180787 11.5666 0.00404396 13.272 0.710462C14.9774 1.41688 16.4351 2.61316 17.4607 4.14802C18.4862 5.68287 19.0336 7.48738 19.0336 9.33334C19.0308 11.8078 18.0466 14.1802 16.2969 15.9299C14.5471 17.6797 12.1748 18.6639 9.70028 18.6667ZM9.70028 21C7.17329 21.0002 4.71537 20.1752 2.70028 18.6503V25.0833C2.70027 25.6328 2.85546 26.171 3.14797 26.6362C3.44048 27.1013 3.85841 27.4743 4.35364 27.7123C4.84886 27.9502 5.40124 28.0435 5.94714 27.9813C6.49305 27.9191 7.01029 27.704 7.43928 27.3607L9.70028 25.55L11.9613 27.3583C12.3901 27.7015 12.9071 27.9166 13.4528 27.9789C13.9985 28.0412 14.5507 27.9481 15.0459 27.7104C15.541 27.4727 15.959 27.1001 16.2517 26.6353C16.5443 26.1705 16.6999 25.6326 16.7003 25.0833V18.6503C14.6852 20.1752 12.2273 21.0002 9.70028 21Z"/>
    </symbol>

    <!-- Shop Icon -->
    <symbol id="icon-shop" viewBox="0 0 28 28">
      <g clip-path="url(#clip0_shop)">
        <path d="M26.4985 4.7565C26.1703 4.36268 25.7595 4.04594 25.2951 3.82878C24.8308 3.61163 24.3243 3.49937 23.8117 3.5H4.949L4.9 3.0905C4.79972 2.23932 4.39062 1.45452 3.75024 0.884891C3.10986 0.31526 2.28273 0.000398759 1.42567 0L1.16667 0C0.857247 0 0.560501 0.122916 0.341709 0.341709C0.122916 0.560501 0 0.857247 0 1.16667C0 1.47609 0.122916 1.77283 0.341709 1.99162C0.560501 2.21042 0.857247 2.33333 1.16667 2.33333H1.42567C1.71142 2.33337 1.98723 2.43828 2.20077 2.62817C2.41431 2.81805 2.55073 3.07971 2.58417 3.3635L4.1895 17.0135C4.35616 18.4331 5.03822 19.7421 6.10623 20.692C7.17423 21.6419 8.55383 22.1667 9.98317 22.1667H22.1667C22.4761 22.1667 22.7728 22.0438 22.9916 21.825C23.2104 21.6062 23.3333 21.3094 23.3333 21C23.3333 20.6906 23.2104 20.3938 22.9916 20.175C22.7728 19.9562 22.4761 19.8333 22.1667 19.8333H9.98317C9.26107 19.8313 8.55727 19.606 7.96826 19.1882C7.37925 18.7705 6.93387 18.1808 6.69317 17.5H20.5998C21.9675 17.5001 23.2917 17.0196 24.3411 16.1425C25.3905 15.2654 26.0984 14.0475 26.341 12.7015L27.2568 7.62183C27.3483 7.11784 27.3277 6.59991 27.1967 6.10474C27.0656 5.60958 26.8273 5.14929 26.4985 4.7565Z"/>
        <path d="M8.16658 28.0006C9.45524 28.0006 10.4999 26.956 10.4999 25.6673C10.4999 24.3787 9.45524 23.334 8.16658 23.334C6.87792 23.334 5.83325 24.3787 5.83325 25.6673C5.83325 26.956 6.87792 28.0006 8.16658 28.0006Z"/>
        <path d="M19.8333 28.0006C21.122 28.0006 22.1667 26.956 22.1667 25.6673C22.1667 24.3787 21.122 23.334 19.8333 23.334C18.5447 23.334 17.5 24.3787 17.5 25.6673C17.5 26.956 18.5447 28.0006 19.8333 28.0006Z"/>
      </g>
      <defs>
        <clipPath id="clip0_shop">
          <rect width="28" height="28" fill="white"/>
        </clipPath>
      </defs>
    </symbol>
    <symbol 
    id='icon-dongle'
    viewBox="0 0 16 16" 
    fill="none" xmlns="http://www.w3.org/2000/svg">
      <g clip-path="url(#clip0_19_1069)">
      <path d="M4.94922 14C5.20766 14.5943 5.63404 15.1001 6.17599 15.4554C6.71794 15.8107 7.35186 16 7.99989 16C8.64791 16 9.28183 15.8107 9.82378 15.4554C10.3657 15.1001 10.7921 14.5943 11.0506 14H4.94922Z" fill="#F2F2F2"/>
      <path d="M14.9281 8.36595L13.7708 4.55062C13.4002 3.21618 12.5944 2.0438 11.4814 1.21962C10.3683 0.395439 9.0119 -0.0333017 7.62739 0.00147191C6.24288 0.0362455 4.90967 0.53254 3.83943 1.41156C2.76919 2.29057 2.02328 3.50193 1.72012 4.85329L0.82145 8.54462C0.702005 9.03512 0.695534 9.54635 0.802523 10.0397C0.909513 10.5331 1.12717 10.9957 1.43906 11.3927C1.75096 11.7896 2.14895 12.1106 2.60299 12.3313C3.05704 12.5519 3.55528 12.6666 4.06012 12.6666H11.7381C12.2586 12.6666 12.7719 12.5448 13.2368 12.3108C13.7017 12.0768 14.1054 11.7372 14.4155 11.3191C14.7255 10.9011 14.9334 10.4162 15.0224 9.90341C15.1115 9.39059 15.0792 8.86404 14.9281 8.36595V8.36595Z" fill="#F2F2F2"/>
      </g>
      <defs>
      <clipPath id="clip0_19_1069">
      <rect width="16" height="16" fill="white"/>
      </clipPath>
      </defs>
    </symbol>
    <symbol 
    id='icon-arrow'
    viewBox="0 0 16 14" 
    fill="none" 
    xmlns="http://www.w3.org/2000/svg">
      <path d="M15.1665 5.8333H3.49987L7.3417 1.99146L5.69203 0.341797L0.683534 5.3503C0.246102 5.78786 0.000366211 6.38125 0.000366211 6.99996C0.000366211 7.61868 0.246102 8.21206 0.683534 8.64963L5.69203 13.6581L7.3417 12.0085L3.49987 8.16663H15.1665V5.8333Z" fill="white"/>
    </symbol>
    <symbol
      id='icon-money'
      viewBox="0 0 16 17" 
      fill="none" xmlns="http://www.w3.org/2000/svg">
      <path d="M8 16.5C6.41775 16.5 4.87103 16.0308 3.55544 15.1518C2.23985 14.2727 1.21447 13.0233 0.608967 11.5615C0.00346629 10.0997 -0.15496 8.49113 0.153721 6.93928C0.462403 5.38743 1.22433 3.96197 2.34315 2.84315C3.46197 1.72433 4.88743 0.962403 6.43928 0.653721C7.99113 0.34504 9.59966 0.503466 11.0615 1.10897C12.5233 1.71447 13.7727 2.73985 14.6518 4.05544C15.5308 5.37103 16 6.91775 16 8.5C15.9977 10.621 15.1541 12.6545 13.6543 14.1543C12.1545 15.6541 10.121 16.4977 8 16.5ZM8 1.83334C6.68146 1.83334 5.39253 2.22433 4.2962 2.95687C3.19987 3.68942 2.34539 4.73061 1.84081 5.94878C1.33622 7.16695 1.2042 8.5074 1.46144 9.80061C1.71867 11.0938 2.35361 12.2817 3.28596 13.214C4.21831 14.1464 5.4062 14.7813 6.6994 15.0386C7.99261 15.2958 9.33305 15.1638 10.5512 14.6592C11.7694 14.1546 12.8106 13.3001 13.5431 12.2038C14.2757 11.1075 14.6667 9.81855 14.6667 8.5C14.6647 6.73249 13.9617 5.03792 12.7119 3.7881C11.4621 2.53828 9.76752 1.83528 8 1.83334ZM8 13.8333C6.94517 13.8333 5.91402 13.5205 5.03696 12.9345C4.1599 12.3485 3.47631 11.5155 3.07265 10.541C2.66898 9.56644 2.56336 8.49409 2.76915 7.45952C2.97494 6.42496 3.48289 5.47465 4.22877 4.72877C4.97465 3.98289 5.92496 3.47494 6.95952 3.26915C7.99409 3.06336 9.06644 3.16898 10.041 3.57265C11.0155 3.97631 11.8485 4.6599 12.4345 5.53696C13.0205 6.41402 13.3333 7.44517 13.3333 8.5C13.3317 9.914 12.7693 11.2696 11.7695 12.2695C10.7696 13.2693 9.414 13.8317 8 13.8333ZM8 4.5C7.20888 4.5 6.43552 4.7346 5.77772 5.17413C5.11993 5.61365 4.60724 6.23837 4.30449 6.96927C4.00173 7.70017 3.92252 8.50444 4.07686 9.28037C4.2312 10.0563 4.61217 10.769 5.17158 11.3284C5.73099 11.8878 6.44372 12.2688 7.21964 12.4231C7.99557 12.5775 8.79983 12.4983 9.53074 12.1955C10.2616 11.8928 10.8864 11.3801 11.3259 10.7223C11.7654 10.0645 12 9.29113 12 8.5C11.9989 7.43946 11.5772 6.42266 10.8273 5.67275C10.0773 4.92283 9.06055 4.50106 8 4.5Z" fill="#B89D14" />
    </symbol>
    <symbol 
      id='icon-close'
      viewBox="0 0 18 18" 
      fill="none" 
      xmlns="http://www.w3.org/2000/svg">
      <path d="M17.4853 16.0709L10.4142 8.99986L17.4853 1.92877C17.8758 1.53825 17.8758 0.905099 17.4853 0.514577C17.0948 0.124056 16.4616 0.124056 16.0711 0.514578L9.00003 7.58563L1.92894 0.514545C1.53839 0.124056 0.905241 0.124056 0.514719 0.514578C0.124197 0.9051 0.124197 1.53825 0.514718 1.92877L7.58577 8.99983L0.514719 16.0709C0.124196 16.4614 0.124197 17.0946 0.514719 17.4851C0.90524 17.8756 1.53839 17.8756 1.92891 17.4851L8.99997 10.414L16.071 17.4851C16.4615 17.8756 17.0947 17.8756 17.4852 17.4851C17.8758 17.0946 17.8758 16.4615 17.4853 16.0709Z" fill="#0D0D0D" />
    </symbol>
    <svg 
      id='icon-check'
      viewBox="0 0 14 8" 
      fill="none" xmlns="http://www.w3.org/2000/svg">
      <path d="M6.99997 7.50003C6.73736 7.50049 6.47725 7.44904 6.23459 7.34865C5.99192 7.24825 5.7715 7.10089 5.58597 6.91503L0.292969 1.62103L1.70697 0.207031L6.99997 5.50003L12.293 0.207031L13.707 1.62103L8.41397 6.91403C8.22853 7.10007 8.00813 7.24762 7.76547 7.34819C7.5228 7.44875 7.26265 7.50036 6.99997 7.50003Z" fill="#00AEEF" />
    </svg>


  </defs>
</svg>